PathFileType	4	(X/Y/Z)	C:/Users/opensim2020/Desktop/walking_exp_matlab/subject03_walking12_straight_01.trc																																																																																																																																														
DataRate	CameraRate	NumFrames	NumMarkers	Units	OrigDataRate	OrigDataStartFrame	OrigNumFrames																																																																																																																																										
100	100	4	48	mm	100	686	211																																																																																																																																										
Frame#	Time	LFHD			RFHD			LBHD			RBHD			C7			T10			CLAV			STRN			RBAK			LSHO			LUPA			LELB			LFRM			LWRA			LWRB			LFIN			RSHO			RUPA			RELB			RFRM			RWRA			RWRB			RFIN			LASI			RASI			LPSI			RPSI			LTHI			LKNE			LTIB			LANK			LHEE			LTOE			RTHI			RKNE			RTIB			RANK			RHEE			RTOE			*39			*40			*41			*42			*43			*44			*45			*46			*47		
		X1	Y1	Z1	X2	Y2	Z2	X3	Y3	Z3	X4	Y4	Z4	X5	Y5	Z5	X6	Y6	Z6	X7	Y7	Z7	X8	Y8	Z8	X9	Y9	Z9	X10	Y10	Z10	X11	Y11	Z11	X12	Y12	Z12	X13	Y13	Z13	X14	Y14	Z14	X15	Y15	Z15	X16	Y16	Z16	X17	Y17	Z17	X18	Y18	Z18	X19	Y19	Z19	X20	Y20	Z20	X21	Y21	Z21	X22	Y22	Z22	X23	Y23	Z23	X24	Y24	Z24	X25	Y25	Z25	X26	Y26	Z26	X27	Y27	Z27	X28	Y28	Z28	X29	Y29	Z29	X30	Y30	Z30	X31	Y31	Z31	X32	Y32	Z32	X33	Y33	Z33	X34	Y34	Z34	X35	Y35	Z35	X36	Y36	Z36	X37	Y37	Z37	X38	Y38	Z38	X39	Y39	Z39	X40	Y40	Z40	X41	Y41	Z41	X42	Y42	Z42	X43	Y43	Z43	X44	Y44	Z44	X45	Y45	Z45	X46	Y46	Z46	X47	Y47	Z47	X48	Y48	Z48
																																																																																																																																																	
132	1.31	184.38614	1633.52136	-1071.13794	171.14998	1634.87927	-938.30658	68.93163	1564.60449	-1078.83093	60.85055	1566.24829	-948.2337	57.21315	1411.58936	-1013.35773	33.50759	1102.24109	-1010.19287	184.64626	1344.85254	-1016.29309	236.00917	1180.76831	-1027.0509	16.71251	1237.04126	-917.22314	127.48946	1384.2937	-1168.83679	131.47832	1192.18311	-1247.58301	161.61629	1075.95007	-1258.22864	256.8913	996.94037	-1242.48083	347.47583	931.9718	-1193.3385	329.70493	909.30341	-1241.06824	397.80029	863.9101	-1218.75427	141.01509	1363.73083	-855.15277	142.79031	1142.31409	-780.58075	152.75305	1029.86768	-766.35974	155.57159	893.03925	-757.17743	170.15295	791.92188	-788.96136	144.74451	793.99097	-740.6925	153.27219	718.41656	-748.6626	192.56279	937.79401	-1130.19214	206.94412	943.89209	-895.71039	33.41545	955.62836	-1072.67371	44.86543	970.9469	-924.22308	183.03737	633.49573	-1182.17773	229.83878	459.68884	-1165.29797	94.64591	317.27396	-1151.88013	-36.93477	159.05974	-1101.86597	-88.48163	154.68163	-1060.13367	61.32615	46.32125	-1083.68799	178.70119	643.88147	-855.33228	203.75389	469.27493	-901.21271	150.40138	280.73364	-897.72552	103.23747	71.29269	-949.3064	54.08874	41.99554	-998.18359	241.73189	31.649	-969.29858	86.80453	1672.61902	-1029.81494	NaN	NaN	NaN	NaN	NaN	NaN	NaN	NaN	NaN	NaN	NaN	NaN	NaN	NaN	NaN	NaN	NaN	NaN	NaN	NaN	NaN	NaN	NaN	NaN
133	1.32	197.81584	1634.87268	-1071.2699	184.43105	1636.18994	-938.54553	82.05275	1566.45044	-1078.92078	73.95737	1567.95972	-948.40228	70.21077	1413.1803	-1013.53326	46.08985	1104.06628	-1009.58356	197.32483	1346.37073	-1016.38812	248.67201	1182.16052	-1026.57275	29.95555	1239.15979	-916.41901	140.41867	1385.57825	-1168.9082	142.08414	1193.09717	-1247.19031	169.73082	1076.04517	-1257.92822	262.8537	993.91168	-1242.9978	351.7258	925.70886	-1194.83508	332.8457	903.88123	-1242.38391	399.18362	855.47247	-1220.30298	154.09657	1365.97864	-855.38574	159.42265	1144.92004	-780.24982	171.70236	1032.72705	-765.92822	178.06725	896.02344	-756.93103	195.34697	795.44537	-788.85321	169.93315	796.82355	-740.63019	181.63078	721.84015	-748.21826	205.25224	940.14008	-1129.82568	218.91261	944.64935	-895.08643	46.06567	958.0293	-1072.74805	57.19624	972.50031	-924.14905	200.45576	636.61322	-1181.43701	250.96535	463.71695	-1163.23267	122.75034	314.13483	-1150.7821	-0.7492	148.99893	-1101.38025	-52.55249	141.08099	-1059.97717	104.98422	44.14291	-1082.79333	185.5408	644.37799	-855.88104	206.59285	469.18408	-900.9035	151.57381	281.31268	-897.92267	103.42558	72.01547	-949.54578	54.38457	43.23228	-998.34961	241.88573	31.52902	-969.32806	100.4132	1674.35535	-1029.92493	NaN	NaN	NaN	NaN	NaN	NaN	NaN	NaN	NaN	NaN	NaN	NaN	NaN	NaN	NaN	NaN	NaN	NaN	NaN	NaN	NaN	NaN	NaN	NaN
134	1.33	211.25751	1635.86633	-1071.4939	197.84187	1637.2926	-938.75238	95.23296	1567.88257	-1079.11755	87.23051	1569.61157	-948.53363	83.1382	1414.50842	-1013.64233	58.59977	1105.53369	-1008.98804	209.98668	1347.54724	-1016.43164	261.26193	1183.25488	-1026.09155	43.11874	1240.87512	-915.58258	153.2655	1386.3335	-1168.83374	152.72513	1193.59241	-1246.66528	178.02135	1075.94275	-1257.68311	268.79047	990.37628	-1243.57532	355.56097	918.71051	-1196.22839	335.53247	897.80194	-1244.01746	400.05203	846.51917	-1222.23218	167.08029	1367.91113	-855.58221	175.96416	1147.42737	-779.85498	190.38858	1035.37573	-765.34198	200.33162	898.849	-756.4071	220.74658	799.06824	-788.81366	195.30614	799.5528	-740.65985	210.14143	725.35248	-748.02271	218.12415	942.26758	-1129.39661	230.92851	945.16034	-894.8667	58.70946	959.89716	-1072.88684	69.44141	973.81989	-924.12506	217.68674	639.44336	-1180.75513	271.465	467.49323	-1161.29956	150.9361	310.63654	-1150.09998	36.30674	138.8717	-1100.8551	-15.15123	127.46853	-1059.54492	148.57053	41.77307	-1082.64331	192.66446	644.78864	-856.30945	209.54863	469.14005	-900.9093	152.55391	281.99103	-898.27148	103.83604	72.69662	-950.20764	54.43687	44.59619	-998.46094	242.0226	31.48275	-969.19141	113.94704	1675.76672	-1030.27551	NaN	NaN	NaN	NaN	NaN	NaN	NaN	NaN	NaN	NaN	NaN	NaN	NaN	NaN	NaN	NaN	NaN	NaN	NaN	NaN	NaN	NaN	NaN	NaN
135	1.34	224.67827	1636.45178	-1071.77771	211.2124	1638.06067	-939.03748	108.42245	1568.94446	-1079.23389	100.33501	1570.68054	-948.78247	95.82199	1415.51099	-1013.64221	71.0799	1106.64551	-1008.4762	222.66653	1348.31677	-1016.461	273.87277	1183.95642	-1025.58228	56.15923	1242.13171	-914.76208	166.20494	1386.745	-1168.87561	163.5984	1193.70862	-1246.23694	186.61571	1075.37549	-1257.25879	274.6481	986.37592	-1244.2417	359.09848	911.11621	-1197.73206	337.96689	891.35748	-1245.59961	400.38849	837.15436	-1224.51636	179.97707	1369.41809	-855.76062	192.05331	1149.46594	-779.26288	208.8692	1037.80652	-764.63171	222.88142	901.69537	-756.25745	246.36095	802.66345	-788.73792	220.63329	802.13739	-740.79254	238.65109	728.83112	-748.05548	230.83867	943.69678	-1129.15088	242.82382	945.38147	-894.59393	71.37184	961.24091	-1073.1272	81.46165	974.89441	-924.22424	234.70555	641.91327	-1180.32422	291.22845	470.90533	-1159.50818	178.99529	306.99487	-1149.14917	74.09532	129.01271	-1100.60486	23.49564	113.93927	-1058.771	192.26291	39.67276	-1083.29016	199.09239	645.22125	-856.62708	212.4809	469.01688	-900.33838	153.45509	282.67191	-898.43695	103.88255	73.51115	-950.54315	54.6721	45.82792	-999.21252	242.2924	31.46466	-969.10663	127.53248	1676.7301	-1030.50659	NaN	NaN	NaN	NaN	NaN	NaN	NaN	NaN	NaN	NaN	NaN	NaN	NaN	NaN	NaN	NaN	NaN	NaN	NaN	NaN	NaN	NaN	NaN	NaN
